<svg width="64" height="64" viewBox="0 0 64 64" fill="none" xmlns="http://www.w3.org/2000/svg">
<path fill-rule="evenodd" clip-rule="evenodd" d="M64 32C64 41.1821 60.1327 49.4609 53.9381 55.2965C51.8962 45.6439 43.3274 38.4 33.0667 38.4C22.2399 38.4 13.2969 46.4653 11.9179 56.9154C4.64926 51.0494 0 42.0677 0 32C0 14.3269 14.3269 0 32 0C49.6731 0 64 14.3269 64 32ZM33.0668 35.2C38.9579 35.2 43.7335 30.4244 43.7335 24.5333C43.7335 18.6423 38.9579 13.8667 33.0668 13.8667C27.1758 13.8667 22.4001 18.6423 22.4001 24.5333C22.4001 30.4244 27.1758 35.2 33.0668 35.2Z" fill="black"/>
<circle cx="32" cy="32" r="30.9333" stroke="black" stroke-width="2.13333"/>
</svg>
