<svg width="172" height="66" viewBox="0 0 172 66" fill="none" xmlns="http://www.w3.org/2000/svg">
<path d="M55.9676 1H19.3914L9.95462 17.3625M55.9676 1L37.7828 32.9655M55.9676 1L9.95462 17.3625M37.7828 32.9655L9.95462 17.3625M37.7828 32.9655H1M37.7828 32.9655L10.1613 48.9482M37.7828 32.9655L56.1742 65M37.7828 32.9655H171M9.95462 17.3625L1 32.9655M1 32.9655L10.1613 48.9482M56.1742 65H19.3225L10.1613 48.9482M56.1742 65L10.1613 48.9482" stroke="black" stroke-width="1.10464" stroke-linecap="round"/>
<path d="M62.2562 32V31.5062C60.8454 31.4004 60.7043 31.3299 60.7043 29.778V22.7594C60.7043 21.2252 60.863 21.137 62.2209 21.0312V20.5374H50.6878V21.0312C52.0633 21.137 52.222 21.1899 52.222 22.7417V29.778C52.222 31.3122 52.0633 31.4004 50.6701 31.5062V32H55.2728V31.5062C53.862 31.4004 53.7209 31.2946 53.7209 29.778V22.4067C53.7209 21.2957 53.8091 21.1546 54.7967 21.1546H58.1296C59.1172 21.1546 59.2053 21.2957 59.2053 22.3009V29.778C59.2053 31.3299 59.0643 31.4004 57.6535 31.5062V32H62.2562ZM69.5833 20.2729C65.8623 20.2729 63.6404 23.2179 63.6404 26.3921C63.6404 29.7957 66.1798 32.2645 69.3717 32.2645C72.5988 32.2645 75.2617 29.9367 75.2617 26.1276C75.2617 22.583 72.5636 20.2729 69.5833 20.2729ZM69.1953 20.9077C71.5231 20.9077 73.4629 22.8828 73.4629 26.6038C73.4629 29.9896 71.7171 31.6297 69.742 31.6297C67.2555 31.6297 65.4391 29.2137 65.4391 25.8984C65.4391 22.583 67.2378 20.9077 69.1953 20.9077ZM87.2369 32V31.5062C86.3728 31.4181 85.879 31.2064 85.2618 30.0778C84.6799 29.0197 84.2037 28.0851 83.8687 27.5208C83.2867 26.5156 82.6342 26.1276 81.8054 25.8807V25.8278C82.0876 25.6515 82.8282 25.2459 83.4983 23.888C84.3448 22.1598 84.7151 21.4897 85.4911 21.4897H85.879C86.2494 21.4897 86.6021 21.2781 86.6021 20.9783C86.6021 20.6079 86.267 20.2729 85.6498 20.2729C84.8739 20.2905 84.2037 20.7667 83.5689 22.1245C82.9164 23.6235 82.5813 24.417 82.017 24.9461C81.4527 25.4751 80.9766 25.6338 79.7598 25.6515V22.6183C79.7598 21.2252 79.9185 21.137 81.2587 21.0312V20.5374H76.7795V21.0312C78.1197 21.137 78.2608 21.2252 78.2608 22.6183V29.7957C78.2608 31.2946 78.1197 31.4004 76.7795 31.5062V32H81.2587V31.5062C79.9185 31.4004 79.7598 31.2946 79.7598 29.7957V26.2334C80.9589 26.2158 81.6467 26.3745 82.3697 27.8558C82.8811 28.8081 83.3925 29.8662 83.6394 30.3776C84.1685 31.4357 84.6446 32 85.7556 32H87.2369ZM88.3195 20.5374V21.0312C89.6245 21.1193 89.7656 21.1899 89.7656 22.7417V29.7957C89.7656 31.2593 89.6245 31.4004 88.2137 31.5062V32H92.9927V31.5062C91.4056 31.4004 91.2469 31.3122 91.2469 29.8133V27.0446L92.5519 27.3797C92.7459 27.3973 93.0809 27.3973 93.3454 27.3621C95.0736 27.1504 96.7842 26.0394 96.7842 23.7469C96.7842 22.6007 96.3433 21.7895 95.6556 21.2604C94.9502 20.749 93.9274 20.5374 92.6753 20.5374H88.3195ZM91.2469 22.1422C91.2469 21.6308 91.2998 21.4191 91.4409 21.3133C91.5643 21.1899 91.9347 21.1017 92.4284 21.1017C93.8745 21.1017 95.0913 21.9129 95.0913 23.8175C95.0913 26.0571 93.6805 26.6743 92.5342 26.6743C91.9523 26.6743 91.4762 26.5509 91.2469 26.4627V22.1422ZM104.56 20.2729C100.839 20.2729 98.6171 23.2179 98.6171 26.3921C98.6171 29.7957 101.157 32.2645 104.348 32.2645C107.576 32.2645 110.238 29.9367 110.238 26.1276C110.238 22.583 107.54 20.2729 104.56 20.2729ZM104.172 20.9077C106.5 20.9077 108.44 22.8828 108.44 26.6038C108.44 29.9896 106.694 31.6297 104.719 31.6297C102.232 31.6297 100.416 29.2137 100.416 25.8984C100.416 22.583 102.215 20.9077 104.172 20.9077ZM117.576 25.7926C118.563 25.5104 119.956 24.8226 119.956 23.1473C119.956 22.3361 119.586 21.5602 118.969 21.137C118.422 20.749 117.646 20.5374 116.324 20.5374H111.792V21.0312C113.202 21.137 113.273 21.2428 113.273 22.7065V29.8309C113.273 31.2946 113.167 31.4004 111.65 31.5062V32H115.548C116.941 32 118.105 31.7884 119.004 31.2946C120.045 30.7303 120.679 29.8133 120.679 28.6318C120.679 26.8683 119.322 26.0924 117.576 25.8278V25.7926ZM114.772 25.6162V22.1598C114.772 21.5779 114.825 21.3839 115.001 21.2781C115.16 21.1723 115.565 21.1017 115.989 21.1017C117.664 21.1017 118.334 22.1598 118.334 23.359C118.334 24.8403 117.523 25.6162 115.601 25.6162H114.772ZM114.772 26.2158H115.565C117.717 26.2158 118.951 27.0094 118.951 28.8081C118.951 30.6598 117.664 31.3828 116.236 31.4004C115.089 31.4004 114.772 31.0654 114.772 29.7957V26.2158ZM132.452 28.9139C131.57 30.6598 130.618 31.6297 128.819 31.6297C126.139 31.6297 124.199 29.3724 124.199 26.0747C124.199 23.3942 125.768 20.9077 128.713 20.9077C130.618 20.9077 131.676 21.666 132.152 23.5353L132.663 23.4119C132.558 22.4596 132.452 21.7366 132.311 20.749C131.817 20.6608 130.618 20.2729 129.189 20.2729C125.257 20.2729 122.4 22.7065 122.4 26.4274C122.4 29.2313 124.322 32.2645 128.713 32.2645C129.983 32.2645 131.464 31.9118 131.958 31.806C132.275 31.2064 132.716 29.9015 132.963 29.0903L132.452 28.9139ZM144.55 32V31.5062C143.686 31.4181 143.192 31.2064 142.575 30.0778C141.993 29.0197 141.517 28.0851 141.182 27.5208C140.6 26.5156 139.947 26.1276 139.118 25.8807V25.8278C139.401 25.6515 140.141 25.2459 140.811 23.888C141.658 22.1598 142.028 21.4897 142.804 21.4897H143.192C143.562 21.4897 143.915 21.2781 143.915 20.9783C143.915 20.6079 143.58 20.2729 142.963 20.2729C142.187 20.2905 141.517 20.7667 140.882 22.1245C140.229 23.6235 139.894 24.417 139.33 24.9461C138.766 25.4751 138.29 25.6338 137.073 25.6515V22.6183C137.073 21.2252 137.231 21.137 138.572 21.0312V20.5374H134.092V21.0312C135.433 21.137 135.574 21.2252 135.574 22.6183V29.7957C135.574 31.2946 135.433 31.4004 134.092 31.5062V32H138.572V31.5062C137.231 31.4004 137.073 31.2946 137.073 29.7957V26.2334C138.272 26.2158 138.96 26.3745 139.683 27.8558C140.194 28.8081 140.706 29.8662 140.952 30.3776C141.481 31.4357 141.958 32 143.069 32H144.55ZM157.36 32V31.5062C156.019 31.4004 155.861 31.3122 155.861 29.7957V22.8299C155.861 21.2604 156.019 21.137 157.36 21.0312V20.5374H154.203V20.6961C154.203 20.8725 154.168 21.0488 154.009 21.2957L148.472 30.3952H148.436C148.507 28.6494 148.507 27.7324 148.507 26.9212V22.6183C148.507 21.2252 148.683 21.137 150.006 21.0312V20.5374H145.562V21.0312C146.902 21.137 147.043 21.2428 147.043 22.6359V29.6722C147.043 31.277 146.902 31.4004 145.562 31.5062V32H148.666V31.806C148.666 31.5768 148.683 31.3475 148.824 31.1359L154.415 21.9129H154.468C154.397 23.6058 154.397 24.611 154.397 25.193V29.7957C154.397 31.3122 154.238 31.4004 152.88 31.5062V32H157.36ZM170.62 32V31.5062C169.28 31.4004 169.121 31.3122 169.121 29.7957V22.8299C169.121 21.2604 169.28 21.137 170.62 21.0312V20.5374H167.464V20.6961C167.464 20.8725 167.428 21.0488 167.27 21.2957L161.732 30.3952H161.697C161.768 28.6494 161.768 27.7324 161.768 26.9212V22.6183C161.768 21.2252 161.944 21.137 163.266 21.0312V20.5374H158.823V21.0312C160.163 21.137 160.304 21.2428 160.304 22.6359V29.6722C160.304 31.277 160.163 31.4004 158.823 31.5062V32H161.926V31.806C161.926 31.5768 161.944 31.3475 162.085 31.1359L167.675 21.9129H167.728C167.658 23.6058 167.658 24.611 167.658 25.193V29.7957C167.658 31.3122 167.499 31.4004 166.141 31.5062V32H170.62ZM164.854 19.6733C166.176 19.6733 167.058 19.109 167.058 18.2449C167.058 17.8745 166.811 17.5395 166.423 17.5395C165.982 17.5395 165.771 17.9098 165.788 18.2801C165.806 18.7034 165.524 19.0032 164.871 19.0032C164.289 19.0032 163.937 18.7563 163.937 18.2801C163.954 17.9627 163.796 17.5395 163.337 17.5395C162.949 17.5395 162.702 17.9098 162.702 18.2625C162.702 19.109 163.531 19.6733 164.854 19.6733Z" fill="black"/>
<path d="M81.1981 47V46.5062C80.334 46.4181 79.8402 46.2064 79.223 45.0778C78.641 44.0197 78.1649 43.0851 77.8298 42.5208C77.2479 41.5156 76.5954 41.1276 75.7666 40.8807V40.8278C76.0487 40.6515 76.7894 40.2459 77.4595 38.888C78.306 37.1598 78.6763 36.4897 79.4522 36.4897H79.8402C80.2105 36.4897 80.5632 36.2781 80.5632 35.9783C80.5632 35.6079 80.2282 35.2729 79.6109 35.2729C78.835 35.2905 78.1649 35.7667 77.53 37.1245C76.8776 38.6235 76.5425 39.417 75.9782 39.9461C75.4139 40.4751 74.9377 40.6338 73.7209 40.6515V37.6183C73.7209 36.2252 73.8796 36.137 75.2199 36.0312V35.5374H70.7407V36.0312C72.0809 36.137 72.222 36.2252 72.222 37.6183V44.7957C72.222 46.2946 72.0809 46.4004 70.7407 46.5062V47H75.2199V46.5062C73.8796 46.4004 73.7209 46.2946 73.7209 44.7957V41.2334C74.9201 41.2158 75.6079 41.3745 76.3309 42.8558C76.8423 43.8081 77.3537 44.8662 77.6006 45.3776C78.1296 46.4357 78.6058 47 79.7168 47H81.1981ZM87.5339 35.2729C83.813 35.2729 81.591 38.2179 81.591 41.3921C81.591 44.7957 84.1304 47.2645 87.3223 47.2645C90.5495 47.2645 93.2123 44.9367 93.2123 41.1276C93.2123 37.583 90.5142 35.2729 87.5339 35.2729ZM87.146 35.9077C89.4737 35.9077 91.4136 37.8828 91.4136 41.6038C91.4136 44.9896 89.6677 46.6297 87.6926 46.6297C85.2061 46.6297 83.3897 44.2137 83.3897 40.8984C83.3897 37.583 85.1885 35.9077 87.146 35.9077ZM104.158 47V46.5062C102.818 46.4004 102.677 46.3122 102.677 44.778V37.583C102.677 36.2604 102.818 36.137 104.158 36.0312V35.5374H95.3757V36.0312C96.8042 36.1193 97.0863 36.2781 97.0863 37.1951C97.0863 40.8984 96.3809 43.4907 95.605 44.8309C95.1289 45.6598 94.6351 46.2241 93.771 46.7707V47.1058C93.9297 47.1763 94.3353 47.2822 94.688 47.2822C95.0407 47.2822 95.4816 47.0176 95.9577 46.4004C97.1921 44.7604 97.9328 41.445 97.9328 36.6837C97.9328 36.2428 97.9681 36.1723 98.6734 36.1723H100.49C101.16 36.1723 101.178 36.2252 101.178 37.0011V44.778C101.178 46.3122 101.037 46.4004 99.7139 46.5062V47H104.158ZM115.524 47V46.5062C114.184 46.4004 114.043 46.3122 114.043 44.778V37.583C114.043 36.2604 114.184 36.137 115.524 36.0312V35.5374H106.742V36.0312C108.17 36.1193 108.452 36.2781 108.452 37.1951C108.452 40.8984 107.747 43.4907 106.971 44.8309C106.495 45.6598 106.001 46.2241 105.137 46.7707V47.1058C105.296 47.1763 105.701 47.2822 106.054 47.2822C106.407 47.2822 106.848 47.0176 107.324 46.4004C108.558 44.7604 109.299 41.445 109.299 36.6837C109.299 36.2428 109.334 36.1723 110.04 36.1723H111.856C112.526 36.1723 112.544 36.2252 112.544 37.0011V44.778C112.544 46.3122 112.403 46.4004 111.08 46.5062V47H115.524ZM125.391 44.1432C125.144 44.8309 124.809 45.4305 124.509 45.8008C124.122 46.2593 123.628 46.4004 122.288 46.4004C121.406 46.4004 120.789 46.3828 120.453 46.1712C120.136 45.9419 120.03 45.5539 120.03 44.7251V41.4098H121.706C123.24 41.4098 123.363 41.5156 123.592 42.7677H124.104V39.3994H123.592C123.381 40.5809 123.293 40.722 121.688 40.722H120.03V36.7013C120.03 36.1899 120.066 36.137 120.612 36.137H121.952C123.222 36.137 123.698 36.2604 123.945 36.6484C124.174 37.0187 124.351 37.4067 124.509 38.1473L125.021 38.0768C124.968 37.1774 124.88 35.9783 124.88 35.5374H117.015V36.0312C118.39 36.137 118.531 36.2075 118.531 37.777V44.7957C118.531 46.2593 118.39 46.4004 116.785 46.5062V47H125.285C125.444 46.4533 125.797 44.7957 125.903 44.2137L125.391 44.1432ZM137.107 46.3651H136.067C135.555 46.3651 135.467 46.2946 135.467 45.4481V37.8299C135.467 36.2428 135.608 36.137 136.948 36.0312V35.5374H127.972L127.955 36.0312L128.66 36.137C129.436 36.2428 129.665 36.3486 129.665 37.1774C129.665 40.387 129.189 43.9668 128.096 46.0125C127.955 46.3122 127.796 46.3651 127.531 46.3651H126.791L126.703 49.9626H127.214L127.637 48.4637C127.937 47.2998 128.131 47 129.136 47H134.691C135.555 47 135.82 47.194 135.961 48.3931L136.172 49.9626H136.684L137.107 46.3651ZM133.968 45.0602C133.968 46.1888 133.774 46.3651 132.875 46.3651H129.577C129.118 46.3651 129.101 46.2064 129.242 45.8361C130.177 43.2262 130.494 39.6992 130.494 36.7013C130.494 36.2075 130.547 36.1546 131.235 36.1546H133.28C133.95 36.1546 133.968 36.2252 133.968 37.3714V45.0602ZM154.273 47V46.5062C153.427 46.4181 152.933 46.2064 152.298 45.0602C151.716 44.0021 151.24 43.0674 150.922 42.5208C150.323 41.5156 149.794 41.11 148.93 40.8631V40.8102C149.212 40.6162 149.935 40.2282 150.728 38.5529C151.416 37.1422 151.751 36.4897 152.545 36.4897H152.915C153.303 36.4897 153.62 36.2781 153.62 35.9783C153.62 35.6256 153.321 35.2729 152.721 35.2729C151.928 35.2905 151.222 35.7667 150.605 37.1245C149.952 38.6058 149.617 39.3994 149.071 39.9285C148.506 40.4575 148.03 40.5986 146.902 40.6162V37.6183C146.902 36.2252 147.06 36.137 148.401 36.0312V35.5374H143.921V36.0312C145.262 36.137 145.42 36.2252 145.42 37.6183V40.6162C144.292 40.5986 143.833 40.4575 143.287 39.9285C142.722 39.3994 142.37 38.6058 141.699 37.1245C141.1 35.7667 140.394 35.2905 139.618 35.2729C139.019 35.2552 138.684 35.5903 138.684 35.9606C138.684 36.2781 139.019 36.4897 139.372 36.4897H139.724C140.518 36.4897 140.835 37.0011 141.594 38.6058C142.387 40.2282 143.075 40.6162 143.392 40.8102V40.8631C142.616 41.11 141.999 41.5156 141.417 42.5208C141.082 43.0674 140.606 44.0021 140.024 45.0602C139.389 46.2064 138.895 46.4181 138.031 46.5062V47H139.513C140.606 47 141.117 46.3828 141.611 45.3776C141.858 44.8486 142.334 43.8081 142.81 42.8382C143.551 41.3745 144.292 41.1805 145.42 41.1982V44.778C145.42 46.277 145.279 46.4004 143.921 46.5062V47H148.401V46.5062C147.06 46.4004 146.902 46.2593 146.902 44.778V41.1982C148.013 41.1805 148.7 41.3569 149.406 42.8382C149.9 43.7905 150.429 44.8662 150.675 45.3776C151.187 46.3828 151.681 47 152.792 47H154.273Z" fill="black"/>
</svg>
